# xmcd
# 
# Track frame offsets:
#     150
#     17775
#     42800
#     62672
#     89975
#     110762
#     140512
#     159125
#     177412
#     195412
# 
# Disc length: 2900
# 
# Revision: 14
# Processed by: cddbd v1.5.2PL0 Copyright (c) Steve Scherf et al.
# Submitted via: BonkEnc v1.0.15
# 
DISCID=860b520a
DTITLE=Acoustic Alchemy - Back On The Case (GRD-9648)
DYEAR=1991
DGENRE=Jazz
TTITLE0=The Alchemist
TTITLE1=Jamaica Heartbeat
TTITLE2=Georgia Peach
TTITLE3=Playing For Time
TTITLE4=When The Lights Go Out
TTITLE5=Clear Air For Miles
TTITLE6=Fire Of The Heart
TTITLE7=Freeze Frame
TTITLE8=On The Case
TTITLE9=Break For The Border
EXTD=Featuring:  Greg Carmichael and Nick Webb YEAR: 1991
EXTT0=
EXTT1=
EXTT2=
EXTT3=
EXTT4=
EXTT5=
EXTT6=
EXTT7=
EXTT8=
EXTT9=
PLAYORDER=
